<?xml version="1.0" encoding="UTF-8"?>
<svg version="1.1" xmlns="http://www.w3.org/2000/svg" width="2048" height="2048">
<path d="M0 0 C2.98733448 0.00564481 5.97466328 0.00846243 8.9620018 0.0110817 C36.76886868 0.04652232 64.46343608 0.2844478 92.15600204 3.06482315 C94.82521501 3.33142316 97.49544111 3.58546075 100.16601181 3.83807755 C172.78076283 10.78557287 244.15815456 25.29772768 313.69140244 47.31805801 C314.83841629 47.68030472 314.83841629 47.68030472 316.00860214 48.04986954 C351.00140976 59.12282229 385.23458303 72.2290465 418.69140244 87.31805801 C419.82980576 87.83013809 420.96820908 88.34221817 422.14110947 88.86981583 C449.08525497 101.04705032 475.6665139 114.0627983 501.24364853 128.91278458 C504.25364659 130.6408465 507.29773361 132.30023397 510.34789658 133.95599747 C547.53284318 154.21381403 583.18613813 178.6807435 616.70702744 204.49383926 C620.50517863 207.41824079 624.33484258 210.29472962 628.18774033 213.14642715 C634.89941344 218.11782485 641.35945704 223.29354771 647.68749619 228.74383926 C650.44576367 231.10755613 653.2418733 233.40930766 656.06640244 235.69305801 C666.35867471 244.08268315 676.29656242 252.87360143 686.04296494 261.88837051 C688.33233641 263.98864936 690.65101862 266.03970989 693.00390244 268.06805801 C696.08906545 270.73974558 698.96056975 273.56265791 701.81666183 276.4757576 C703.62762983 278.25538892 705.49616638 279.91083382 707.42553329 281.56048965 C711.60161434 285.19316432 715.53865736 289.02049293 719.44530869 292.93915176 C720.14985687 293.64274323 720.85440506 294.34633469 721.58030319 295.0712471 C723.0579361 296.54820449 724.534327 298.02640544 726.00951767 299.50580215 C728.24806725 301.74970886 730.49190716 303.98822506 732.73632431 306.22626114 C734.18130647 307.67190419 735.62597835 309.11785747 737.07030869 310.56415176 C737.73091797 311.22273682 738.39152725 311.88132187 739.072155 312.55986404 C742.90230892 316.40905091 746.55444012 320.36254347 750.09315109 324.48169327 C752.82352712 327.61885083 755.70585144 330.61260444 758.56640244 333.63055801 C763.45990091 338.82909232 768.10250364 344.13796155 772.55858994 349.72040176 C774.80269519 352.45360688 777.16007996 355.03942394 779.56640244 357.63055801 C783.72946926 362.15869377 787.5535455 366.85319072 791.3107872 371.71503067 C794.37773759 375.67489066 797.52695201 379.55044874 800.739254 383.39325333 C808.18933102 392.3110821 815.13164735 401.52640759 821.9501915 410.93280411 C823.65579932 413.26928594 825.38360459 415.58724155 827.12108994 417.90008926 C835.84290882 429.53661026 843.95279538 441.52446506 851.94335556 453.6725502 C853.40201032 455.88008972 854.87424639 458.07628357 856.36327744 460.26337051 C868.48629766 478.08605689 879.58064166 496.64945979 890.09276962 515.46063614 C891.21386237 517.46449525 892.33994729 519.46556572 893.46972275 521.46454239 C916.17174535 561.64865076 935.95415709 603.29815363 952.69140244 646.31805801 C952.93271896 646.93737198 953.17403549 647.55668594 953.42266464 648.194767 C986.94733631 734.39718672 1007.89088943 824.20805537 1022.00946045 1014.62665558 C1022.00381564 1017.61399006 1022.00099802 1020.60131886 1021.99837875 1023.58865738 C1021.96293813 1051.39552426 1021.72501265 1079.09009166 1018.9446373 1106.78265762 C1018.67803728 1109.45187059 1018.4239997 1112.12209669 1018.1713829 1114.79266739 C1011.04003954 1189.33118571 996.19468075 1263.18587958 972.69140244 1334.31805801 C972.42907822 1335.11560501 972.166754 1335.91315201 971.89648056 1336.7348671 C964.83137743 1358.19990596 957.29660462 1379.41523961 948.69140244 1400.31805801 C948.24055283 1401.4150502 947.78970322 1402.51204239 947.3251915 1403.64227676 C940.82756897 1419.37676085 933.92250139 1434.90784993 926.69140244 1450.31805801 C926.23185165 1451.30032364 925.77230087 1452.28258926 925.29882431 1453.29462051 C913.38446658 1478.68098496 900.65793489 1503.56519248 886.27587509 1527.64569473 C884.28762815 1530.99906162 882.35205464 1534.38095464 880.4189415 1537.7663002 C865.70236606 1563.49108659 849.08444102 1588.32707004 831.69140244 1612.31805801 C831.15096298 1613.06426407 830.61052353 1613.81047012 830.05370712 1614.57928848 C817.90271429 1631.31027093 805.21858128 1647.59234503 792.11083603 1663.58270645 C790.84691625 1665.12793207 789.59086454 1666.67958582 788.33593369 1668.23212051 C779.31096634 1679.3777086 769.85759414 1690.14290727 760.12108994 1700.66962051 C758.02081109 1702.95899199 755.96975056 1705.27767419 753.94140244 1707.63055801 C751.27024466 1710.71510925 748.44796408 1713.5861119 745.53541183 1716.44160843 C743.74642313 1718.26206939 742.08097357 1720.14087267 740.42162704 1722.07953262 C736.93263467 1726.09057593 733.2719799 1729.88264518 729.50780869 1733.63446426 C728.84860931 1734.29462036 728.18940994 1734.95477646 727.51023483 1735.63493729 C726.12743409 1737.01841307 724.74339168 1738.40064885 723.35815048 1739.78168106 C721.25909901 1741.87537471 719.16544304 1743.97435676 717.07226181 1746.07391739 C715.71776458 1747.42775372 714.36295712 1748.78127977 713.00780869 1750.13446426 C712.39297119 1750.75132599 711.7781337 1751.36818771 711.14466476 1752.00374222 C707.37670048 1755.75182648 703.48579156 1759.30410757 699.46543503 1762.77983475 C697.49627567 1764.48724799 695.58322252 1766.24422403 693.69140244 1768.03680801 C693.03140244 1768.6594252 692.37140244 1769.28204239 691.69140244 1769.92352676 C691.03140244 1770.54872208 690.37140244 1771.17391739 689.69140244 1771.81805801 C684.45879879 1776.77472358 679.14748581 1781.60818853 673.69140244 1786.31805801 C672.81814316 1787.07457657 672.81814316 1787.07457657 671.92724228 1787.84637833 C664.2794504 1794.45961168 656.54404764 1800.9488055 648.69140244 1807.31805801 C647.4656519 1808.32527435 646.24042552 1809.33312878 645.01562119 1810.34149551 C636.45247568 1817.37395893 627.7434422 1824.15839927 618.82909775 1830.73944473 C616.56901285 1832.40843845 614.31372045 1834.0837835 612.05858994 1835.75946426 C539.87525983 1889.29555708 461.28658759 1933.28408282 94.69140244 2033.31805801 C93.81608871 2033.40162552 92.94077499 2033.48519302 92.03893661 2033.57129288 C34.30960785 2039.04788673 -25.94495725 2039.12252643 -83.67175674 2033.57129288 C-86.42931304 2033.30646483 -89.18770881 2033.05192159 -91.94629288 2032.79803848 C-183.14564826 2024.29216968 -272.86434617 2003.51357704 -457.30859756 1927.31805801 C-457.9353035 1927.0041713 -458.56200943 1926.69028458 -459.20770645 1926.36688614 C-475.00823444 1918.44499329 -490.39435588 1909.9595601 -505.58496475 1900.92596817 C-508.90906561 1898.96356872 -512.26035134 1897.05174903 -515.61474991 1895.14178848 C-563.86412149 1867.59829588 -609.49566483 1834.22803472 -651.73218155 1798.1935463 C-655.00434374 1795.40451192 -658.32595812 1792.69068057 -661.68359756 1790.00555801 C-666.95685843 1785.72055101 -671.90241696 1781.12501789 -676.83154678 1776.45355606 C-680.59348067 1772.89098734 -684.43117859 1769.4419986 -688.34106827 1766.04266739 C-700.01011995 1755.81432875 -710.95555316 1744.77455099 -721.93359756 1733.81805801 C-722.54400894 1733.21023483 -723.15442032 1732.60241165 -723.78332901 1731.97616959 C-735.79895627 1720.00073986 -735.79895627 1720.00073986 -740.90576553 1713.93524551 C-742.46191659 1712.14131155 -744.11340154 1710.48048354 -745.80859756 1708.81805801 C-748.84454681 1705.82933465 -751.65368415 1702.70099322 -754.43359756 1699.47430801 C-756.4821885 1697.11842844 -758.58062758 1694.81298341 -760.68359756 1692.50555801 C-764.55893499 1688.21197169 -768.23081066 1683.787178 -771.86719131 1679.29071426 C-774.5858008 1675.98053536 -777.37966646 1672.74330825 -780.18359756 1669.50555801 C-785.59471802 1663.23258743 -790.74850454 1656.79181087 -795.81641006 1650.23993301 C-797.41934542 1648.17541942 -799.03491815 1646.12123325 -800.65234756 1644.06805801 C-808.27031989 1634.37564342 -815.62554455 1624.52813418 -822.76904678 1614.48114395 C-824.22519878 1612.43523424 -825.68976948 1610.39563052 -827.15625381 1608.35712051 C-878.90214193 1536.10780723 -921.181296 1456.51280636 -962.30859756 1343.31805801 C-962.54514053 1342.62281021 -962.7816835 1341.92756241 -963.02539444 1341.21124649 C-970.74002785 1318.49402889 -977.34564931 1295.55372464 -983.30859756 1272.31805801 C-983.48928787 1271.61721085 -983.66997818 1270.91636368 -983.85614395 1270.19427872 C-997.22583045 1218.28034687 -1006.0044021 1165.3691937 -1011.05145645 1112.01361465 C-1011.29617912 1109.44823796 -1011.55164369 1106.8841376 -1011.80908585 1104.32001114 C-1017.42137097 1047.19838149 -1017.29520144 986.95787041 -1011.56183243 929.8534584 C-1011.29523241 927.18424544 -1011.04119483 924.51401934 -1010.78857803 921.84344864 C-1001.99419281 829.92512943 -981.21503619 739.36907583 -885.87646866 521.04364395 C-884.27254415 518.25538278 -882.7022438 515.45052563 -881.14062881 512.63837051 C-864.14542629 482.0667497 -844.83158958 452.64160991 -824.30859756 424.31805801 C-823.86290421 423.70043594 -823.41721085 423.08281387 -822.95801163 422.44647598 C-811.99476619 407.27658684 -800.56553025 392.50091515 -788.70117569 378.02655411 C-786.8594769 375.76705058 -785.0524568 373.48086424 -783.24609756 371.19305801 C-778.60351834 365.37280145 -773.72467539 359.75792593 -768.8598671 354.12372208 C-767.36299715 352.38137865 -765.87861008 350.62928602 -764.39844131 348.87274551 C-757.90813742 341.18954019 -751.16321459 333.79487999 -744.24219131 326.49774551 C-741.2315557 323.32257288 -738.29116208 320.08990878 -735.35547256 316.84540176 C-728.87016187 309.72441209 -722.06591535 302.92449945 -715.24634171 296.12543106 C-713.11032399 293.99481167 -710.97975638 291.85884579 -708.84961319 289.72235489 C-707.4677725 288.34117452 -706.0856219 286.96030412 -704.70312881 285.57977676 C-704.07896576 284.95358948 -703.4548027 284.32740219 -702.81172562 283.68223953 C-699.02422933 279.91449131 -695.11483091 276.34258221 -691.07320023 272.84907913 C-689.13855471 271.17052384 -687.26433214 269.44060067 -685.41406631 267.66962051 C-684.77428848 267.06142471 -684.13451065 266.45322891 -683.47534561 265.82660294 C-682.49561783 264.8942482 -682.49561783 264.8942482 -681.49609756 263.94305801 C-676.11611186 258.85742182 -670.66355969 254.02727265 -664.87109756 249.41571426 C-662.14712797 247.1858794 -659.57524571 244.83851683 -656.99609756 242.44305801 C-652.36431823 238.18076535 -647.54545184 234.27555309 -642.573246 230.42621231 C-638.72661849 227.44565371 -634.96687176 224.39220011 -631.24609756 221.25555801 C-562.72286267 163.82226771 -481.82123142 117.33315559 -327.30859756 54.31805801 C-326.59890823 54.07591568 -325.8892189 53.83377335 -325.15802383 53.58429337 C-250.51031353 28.16583673 -173.34973231 11.73932931 -94.87109756 4.00555801 C-94.11904037 3.93019821 -93.36698318 3.85483841 -92.59213638 3.77719498 C-86.83665431 3.20992558 -81.07602355 2.74565624 -75.30859756 2.31805801 C-73.59775986 2.18885468 -73.59775986 2.18885468 -71.85235977 2.05704117 C-47.90193437 0.30324358 -24.00854389 -0.04609073 0 0 Z M-68.30859756 522.31805801 C-69.50259171 522.48966446 -70.69658585 522.6612709 -71.92676163 522.83807755 C-99.98185861 526.90988734 -127.41685376 533.35554402 -154.30859756 542.31805801 C-155.32695694 542.65530899 -156.34531631 542.99255997 -157.39453506 543.34003067 C-214.37871629 562.43444381 -268.62898039 593.89262492 -312.68359756 634.90399551 C-314.72505729 636.78140937 -316.79242935 638.58993614 -318.89844131 640.39227676 C-323.93462546 644.78461377 -328.64161688 649.5008764 -333.35425186 654.23334122 C-334.86852336 655.7529747 -336.38807187 657.26718319 -337.90820694 658.78094864 C-343.25159266 664.12029894 -348.42941436 669.54650736 -353.30859756 675.31805801 C-354.22102896 676.3743319 -355.13377249 677.43033627 -356.04687881 678.48602676 C-362.38006973 685.91479243 -368.47634262 693.48825574 -374.30859756 701.31805801 C-374.80617569 701.98434219 -375.30375381 702.65062637 -375.81641006 703.33710098 C-389.06538282 721.15876415 -400.56612486 739.89494518 -411.30859756 759.31805801 C-411.77120987 760.14998672 -412.23382217 760.98191544 -412.71045303 761.83905411 C-439.07637442 809.58224367 -455.34443751 863.33611278 -462.30859756 917.31805801 C-462.45957901 918.43454727 -462.61056046 919.55103653 -462.7661171 920.7013588 C-467.66875593 958.22479193 -467.57781684 997.84234237 -462.30859756 1035.31805801 C-462.13699112 1036.55201309 -461.96538467 1037.78596817 -461.78857803 1039.05731583 C-448.4224163 1132.01126632 -407.67490177 1217.12496722 -344.30859756 1286.31805801 C-343.61032852 1287.08400284 -343.61032852 1287.08400284 -342.89795303 1287.8654213 C-334.77157991 1296.77505929 -326.62219892 1305.59996433 -317.44922256 1313.45477676 C-314.9767327 1315.60692579 -312.58588399 1317.83786521 -310.18359756 1320.06805801 C-304.4322152 1325.30592409 -298.39972864 1330.10146564 -292.23144913 1334.8366127 C-290.23553872 1336.3743456 -288.25213316 1337.92727151 -286.26953506 1339.48212051 C-219.94154062 1391.23534961 -139.56504897 1421.81259534 -56.30859756 1431.31805801 C-55.33954483 1431.43520157 -54.3704921 1431.55234512 -53.37207413 1431.67303848 C0.55577109 1437.98933501 57.39974764 1432.57559274 109.69140244 1418.31805801 C111.29556015 1417.88154922 111.29556015 1417.88154922 112.93212509 1417.43622208 C160.73481505 1404.23337478 206.89021088 1383.65367372 247.69140244 1355.31805801 C248.32610458 1354.88026016 248.96080673 1354.44246231 249.61474228 1353.99139786 C268.39400514 1341.01671426 285.86816539 1326.73935864 302.69140244 1311.31805801 C303.50447861 1310.5806337 303.50447861 1310.5806337 304.33398056 1309.82831192 C376.01857344 1244.73382294 425.07274909 1153.24956751 444.50390244 1042.88055801 C444.79623764 1040.93040787 444.79623764 1040.93040787 445.09447861 1038.94086075 C448.005345 1018.28256126 449.07267856 997.66842862 449.00390244 976.81805801 C449.00166672 975.12558945 449.00166672 975.12558945 448.99938583 973.3989296 C448.955583 954.861506 448.157391 936.70375289 445.69140244 918.31805801 C445.47459824 916.64114883 445.47459824 916.64114883 445.25341415 914.9303627 C438.31516237 862.39020133 421.95107807 812.35972162 397.69140244 765.31805801 C397.34641708 764.64210587 397.00143173 763.96615372 396.64599228 763.26971817 C379.6036356 729.94088437 357.63922516 699.17804707 332.69140244 671.31805801 C332.22089462 670.78970352 331.75038681 670.26134903 331.26562119 669.7169838 C324.72296813 662.39796662 317.86824054 655.39797248 310.94140244 648.44305801 C310.1491124 647.64609512 309.35682236 646.84913223 308.54052353 646.02801895 C303.75147939 641.25200214 298.82576304 636.71835486 293.69140244 632.31805801 C292.6431592 631.39252201 291.59620682 630.46552119 290.55077744 629.53680801 C281.45108498 621.54156757 271.87982373 614.24637229 262.11083603 607.09051895 C260.60002745 605.98371065 259.09204218 604.87302572 257.58837509 603.75653458 C197.53401566 559.21782956 125.30355969 532.89794296 51.69140244 522.31805801 C50.07443466 522.07031631 50.07443466 522.07031631 48.42480087 521.81756973 C10.88406625 516.24124249 -30.81668634 516.57378163 -68.30859756 522.31805801 Z M-321.68359756 1517.50555801 C-322.99537979 1517.63083878 -324.30716202 1517.75611954 -325.65869522 1517.88519669 C-415.2296063 1526.86853976 -501.33317826 1561.45717513 -571.30859756 1618.31805801 C-572.97521813 1619.63061655 -574.64188198 1620.94312014 -576.30859756 1622.25555801 C-580.30044793 1625.46341158 -584.22288887 1628.74758108 -588.12109756 1632.06805801 C-588.64123428 1632.50883682 -589.161371 1632.94961563 -589.69726944 1633.40375137 C-601.1559956 1643.2311529 -611.92404589 1653.77081691 -622.57666397 1664.45575333 C-624.69840765 1666.58290585 -626.82551247 1668.70459362 -628.95312881 1670.82587051 C-630.32975197 1672.20315384 -631.70606522 1673.580747 -633.08203506 1674.95868301 C-633.7050853 1675.57970901 -634.32813553 1676.20073502 -634.97006607 1676.84057999 C-639.27888889 1681.17210869 -643.32907264 1685.68355399 -647.30859756 1690.31805801 C-648.25869562 1691.41217529 -649.20914129 1692.50599095 -650.16016006 1693.59930801 C-655.63030879 1699.93439478 -661.01532902 1706.33429319 -666.30859756 1712.81805801 C-666.84823135 1713.47612442 -667.38786514 1714.13419083 -667.94385147 1714.81219864 C-670.95897674 1718.52633219 -673.72387608 1722.29185724 -676.30859756 1726.31805801 C-672.24830188 1730.49254951 -668.07697022 1734.44549838 -663.66406631 1738.24383926 C-661.29251376 1740.33222137 -658.98010034 1742.472943 -656.67090225 1744.62958145 C-651.34512411 1749.60134285 -645.92723293 1754.35282891 -640.24219131 1758.91571426 C-636.75955459 1761.76767376 -633.38098463 1764.72647927 -629.99609756 1767.69305801 C-623.56780608 1773.30332123 -616.96978093 1778.63274232 -610.21435928 1783.8419838 C-608.15532471 1785.43677281 -606.10830867 1787.04618092 -604.06250381 1788.65790176 C-594.38270648 1796.26731862 -584.53320063 1803.58559328 -574.51025772 1810.73553848 C-572.39227183 1812.25791423 -570.29138759 1813.80084753 -568.19531631 1815.35321426 C-533.03988061 1841.29812424 -495.09071179 1863.27259231 -456.70654678 1884.01922989 C-454.6025699 1885.15883048 -452.50352429 1886.30680855 -450.40625381 1887.45868301 C-440.23030248 1893.0139997 -429.78099247 1897.98881801 -419.2895546 1902.91669083 C-417.37719558 1903.81570317 -415.46655135 1904.71837752 -413.55810928 1905.6256752 C-382.30974922 1920.47020553 -350.02266627 1933.10531182 -317.30859756 1944.31805801 C-316.52267227 1944.58769363 -315.73674698 1944.85732925 -314.92700577 1945.13513565 C-235.9771163 1972.14483296 -153.89317843 1988.61414473 -70.73700333 1995.12665176 C-68.47669223 1995.30480884 -66.21710116 1995.49024521 -63.95752335 1995.67743301 C-13.50345902 1999.77095666 38.31024019 1998.62089905 88.69140244 1994.31805801 C89.54727951 1994.24544754 90.40315659 1994.17283707 91.28496933 1994.09802628 C145.47353703 1989.44047278 199.01606381 1979.75177067 251.69140244 1966.31805801 C252.4535405 1966.12381241 253.21567856 1965.9295668 254.00091171 1965.72943497 C293.65096431 1955.57289904 332.76227742 1942.69399287 370.69140244 1927.31805801 C371.34697128 1927.05313553 372.00254013 1926.78821304 372.6779747 1926.5152626 C390.88370055 1919.14995629 408.78453461 1911.22499785 426.53173447 1902.81415176 C429.49615063 1901.41050919 432.46582303 1900.01875464 435.43749619 1898.63055801 C463.36667669 1885.53496542 490.42547012 1870.47823311 516.69140244 1854.31805801 C517.60921494 1853.75683243 518.52702744 1853.19560684 519.47265244 1852.61737442 C545.34537157 1836.77294209 570.55976075 1819.71693407 594.69140244 1801.31805801 C596.00896815 1800.32177563 597.32668654 1799.32569513 598.64452744 1798.32977676 C607.89361984 1791.32008389 616.96846362 1784.12447841 625.93554306 1776.75799942 C627.50075836 1775.474401 629.07221943 1774.1984273 630.64452744 1772.92352676 C641.60014994 1764.03409622 652.25113226 1754.80606474 662.69140244 1745.31805801 C664.33659161 1743.83817493 665.98243487 1742.35901868 667.62890244 1740.88055801 C673.00123627 1736.04631167 678.34788549 1731.18411242 683.69140244 1726.31805801 C673.37147588 1712.32361215 662.23379134 1698.9963013 650.39452744 1686.26727676 C648.37841411 1684.09230222 646.43368298 1681.86576468 644.49877548 1679.61835098 C640.84439548 1675.43681503 637.00203193 1671.48382747 633.07030869 1667.56415176 C632.36671722 1666.85960358 631.66312576 1666.15505539 630.93821335 1665.42915726 C629.46125596 1663.95152435 627.98305501 1662.47513345 626.50365829 1660.99994278 C624.25975159 1658.7613932 622.02123539 1656.51755329 619.78319931 1654.27313614 C618.33755626 1652.82815398 616.89160298 1651.38348209 615.44530869 1649.93915176 C614.78672363 1649.27854248 614.12813858 1648.6179332 613.44959641 1647.93730545 C609.02413707 1643.53372855 604.43258434 1639.37852639 599.69140244 1635.31805801 C598.89378746 1634.62905663 598.89378746 1634.62905663 598.08005905 1633.92613602 C525.07580371 1571.01102469 436.01090024 1529.24943118 329.69140244 1517.63055801 C328.48355087 1517.51099747 327.27569931 1517.39143692 326.03124619 1517.26825333 C305.13932459 1515.37348126 284.13951768 1515.16810281 263.17626572 1515.19107437 C260.82946944 1515.18991836 258.48267334 1515.18832764 256.13587761 1515.18634713 C249.76871778 1515.18221971 243.40157318 1515.18421428 237.03441334 1515.18733335 C230.84701986 1515.1898757 224.65962773 1515.18668864 218.47223467 1515.18418598 C205.05573861 1515.17895029 191.63924734 1515.17936455 178.22275084 1515.18226489 C166.48103866 1515.18479041 154.73932822 1515.18543253 142.99761581 1515.18424225 C142.21573132 1515.18416586 141.43384682 1515.18408948 140.62826885 1515.18401078 C137.45354922 1515.18369939 134.27882958 1515.18338098 131.10410995 1515.18305101 C101.38342778 1515.17999887 71.66274864 1515.18275457 41.94206694 1515.18814791 C15.5948386 1515.19289275 -10.7523849 1515.19246809 -37.09961319 1515.18768692 C-66.76941184 1515.18232068 -96.43920781 1515.18021541 -126.10900688 1515.18329918 C-129.27760824 1515.18361985 -132.44620959 1515.1839327 -135.61481094 1515.18424225 C-136.39487841 1515.18432133 -137.17494587 1515.1844004 -137.97865175 1515.18448188 C-149.70677814 1515.18561457 -161.43490259 1515.18429805 -173.16302872 1515.1817627 C-186.5118033 1515.17889121 -199.86057239 1515.17964416 -213.20934629 1515.18504344 C-220.00954622 1515.18770399 -226.8097358 1515.18872549 -233.60993576 1515.18539429 C-239.852359 1515.18238275 -246.09476356 1515.18410372 -252.33718514 1515.18937184 C-254.57777076 1515.19047553 -256.81835801 1515.18995129 -259.05894256 1515.18749605 C-279.94259391 1515.1663934 -300.88214933 1515.51661491 -321.68359756 1517.50555801 Z " fill="#DDDDDD" transform="translate(1020.3085975646973,2.6819419860839844)"/>
</svg>
